<svg xmlns="http://www.w3.org/2000/svg" xmlns:xlink="http://www.w3.org/1999/xlink" width="70" height="70" viewBox="0 0 70 70">
  <defs>
    <clipPath id="clip-path">
      <rect id="Rectangle_269" data-name="Rectangle 269" width="70" height="70" transform="translate(825 3557)" fill="#bfbfbf"/>
    </clipPath>
  </defs>
  <g id="Mask_Group_28" data-name="Mask Group 28" transform="translate(-825 -3557)" clip-path="url(#clip-path)">
    <g id="codesandbox" transform="translate(831.504 3560.266)">
      <path id="Path_2777" data-name="Path 2777" d="M62.416,47.94V22.612a6.332,6.332,0,0,0-3.166-5.477L37.088,4.47a6.332,6.332,0,0,0-6.332,0L8.594,17.135a6.332,6.332,0,0,0-3.166,5.477V47.94a6.332,6.332,0,0,0,3.166,5.477L30.756,66.082a6.332,6.332,0,0,0,6.332,0L59.25,53.417A6.332,6.332,0,0,0,62.416,47.94Z" transform="translate(-5.428 -3.622)" fill="none" stroke="#ff274a" stroke-linecap="round" stroke-linejoin="round" stroke-width="3.618"/>
      <path id="Path_2778" data-name="Path 2778" d="M13.569,7.617l14.247,8.232L42.063,7.617" transform="translate(0.678 -0.626)" fill="none" stroke="#ff274a" stroke-linecap="round" stroke-linejoin="round" stroke-width="3.618"/>
      <path id="Path_2779" data-name="Path 2779" d="M19.675,46.374V29.942L5.428,21.71" transform="translate(-5.428 9.944)" fill="none" stroke="#ff274a" stroke-linecap="round" stroke-linejoin="round" stroke-width="3.618"/>
      <path id="Path_2780" data-name="Path 2780" d="M44.1,21.71,29.851,29.942V46.374" transform="translate(12.89 9.944)" fill="none" stroke="#ff274a" stroke-linecap="round" stroke-linejoin="round" stroke-width="3.618"/>
      <path id="Path_2781" data-name="Path 2781" d="M5.916,12.592,33.556,28.58,61.2,12.592" transform="translate(-5.061 3.105)" fill="none" stroke="#ff274a" stroke-linecap="round" stroke-linejoin="round" stroke-width="3.618"/>
      <line id="Line_44" data-name="Line 44" y1="31.914" transform="translate(28.494 31.654)" fill="none" stroke="#ff274a" stroke-linecap="round" stroke-linejoin="round" stroke-width="3.618"/>
    </g>
  </g>
</svg>
