<svg xmlns="http://www.w3.org/2000/svg" xmlns:xlink="http://www.w3.org/1999/xlink" width="25" height="25" viewBox="0 0 25 25">
  <defs>
    <clipPath id="clip-path">
      <rect id="Rectangle_243" data-name="Rectangle 243" width="25" height="25" transform="translate(1179 3404)" fill="#fff"/>
    </clipPath>
  </defs>
  <g id="Mask_Group_23" data-name="Mask Group 23" transform="translate(-1179 -3404)" clip-path="url(#clip-path)">
    <path id="twitter_1_" data-name="twitter (1)" d="M23.958,3.125a11.354,11.354,0,0,1-3.271,1.594A4.667,4.667,0,0,0,12.5,7.844V8.885A11.1,11.1,0,0,1,3.125,4.167s-4.167,9.375,5.208,13.542a12.125,12.125,0,0,1-7.292,2.083c9.375,5.208,20.833,0,20.833-11.979a4.688,4.688,0,0,0-.083-.865,8.042,8.042,0,0,0,2.167-3.823Z" transform="translate(1179 3404.018)" fill="none" stroke="#fff" stroke-linecap="round" stroke-linejoin="round" stroke-width="2.083"/>
  </g>
</svg>
